<svg width="142" height="26" viewBox="0 0 142 26" fill="none" xmlns="http://www.w3.org/2000/svg">
<path d="M0.144 24.5357C0.048 24.5357 0 24.477 0 24.3597L0.036 0.177258C0.036 0.0833906 0.084 0.0364571 0.18 0.0364571H11.736C11.832 0.0364571 11.88 0.0951248 11.88 0.212458V4.15486C11.88 4.24872 11.832 4.29566 11.736 4.29566H4.356V9.78686H11.736C11.832 9.78686 11.88 9.83379 11.88 9.92766L11.916 13.9053C11.916 13.9991 11.868 14.0461 11.772 14.0461H4.356V20.2061H11.772C11.868 20.2061 11.916 20.2647 11.916 20.3821V24.3949C11.916 24.4887 11.868 24.5357 11.772 24.5357H0.144ZM15.2972 24.5357C15.1772 24.5357 15.1172 24.477 15.1172 24.3597L15.1892 0.177258C15.1892 0.0833906 15.2372 0.0364571 15.3332 0.0364571L22.0652 0.00125714C23.3852 -0.0222095 24.5852 0.282858 25.6652 0.916458C26.7692 1.55006 27.6452 2.40659 28.2932 3.48606C28.9412 4.54206 29.2652 5.71539 29.2652 7.00606V17.1085C29.2652 18.4695 28.9292 19.7133 28.2572 20.8397C27.5852 21.9426 26.6852 22.8226 25.5572 23.4797C24.4292 24.1367 23.1572 24.477 21.7412 24.5005L15.2972 24.5357ZM19.5092 20.2061H21.7412C22.6292 20.2061 23.3732 19.901 23.9732 19.2909C24.5972 18.6807 24.9092 17.9533 24.9092 17.1085V6.97086C24.9092 6.21992 24.6212 5.57459 24.0452 5.03486C23.4932 4.47166 22.8332 4.20179 22.0652 4.22526L19.5452 4.26046L19.5092 20.2061ZM38.6162 24.8877C37.3442 24.8877 36.1682 24.5709 35.0882 23.9373C34.0082 23.2802 33.1442 22.4119 32.4962 21.3325C31.8722 20.253 31.5602 19.0679 31.5602 17.7773L31.6322 0.177258C31.6322 0.0833906 31.6802 0.0364571 31.7762 0.0364571H35.8082C35.9042 0.0364571 35.9522 0.0833906 35.9522 0.177258V17.7773C35.9522 18.5751 36.2042 19.2557 36.7082 19.8189C37.2362 20.3586 37.8722 20.6285 38.6162 20.6285C39.3842 20.6285 40.0202 20.3586 40.5242 19.8189C41.0522 19.2557 41.3162 18.5751 41.3162 17.7773V0.177258C41.3162 0.0833906 41.3642 0.0364571 41.4602 0.0364571H45.4922C45.5882 0.0364571 45.6362 0.0833906 45.6362 0.177258L45.7082 17.7773C45.7082 19.0914 45.3842 20.2882 44.7362 21.3677C44.1122 22.4471 43.2602 23.3037 42.1802 23.9373C41.1242 24.5709 39.9362 24.8877 38.6162 24.8877Z" fill="#E04462"/>
<path d="M54.7642 25.2384C53.4442 25.2384 52.2442 24.9216 51.1642 24.288C50.1082 23.6309 49.2682 22.7627 48.6442 21.6832C48.0202 20.6037 47.7082 19.3952 47.7082 18.0576L47.7442 7.0752C47.7442 5.78454 48.0442 4.6112 48.6442 3.5552C49.2682 2.47573 50.1082 1.6192 51.1642 0.985601C52.2442 0.328533 53.4442 0 54.7642 0C56.0842 0 57.2722 0.316801 58.3282 0.950401C59.3842 1.584 60.2242 2.44053 60.8482 3.52C61.4722 4.576 61.7842 5.76107 61.7842 7.0752V8.6944C61.7842 8.78827 61.7362 8.8352 61.6402 8.8352H57.6082C57.5122 8.8352 57.4642 8.78827 57.4642 8.6944V7.0752C57.4642 6.3008 57.2002 5.632 56.6722 5.0688C56.1682 4.5056 55.5322 4.224 54.7642 4.224C53.9002 4.224 53.2402 4.51733 52.7842 5.104C52.3282 5.6672 52.1002 6.32427 52.1002 7.0752V18.0576C52.1002 18.9259 52.3522 19.6299 52.8562 20.1696C53.3842 20.7093 54.0202 20.9792 54.7642 20.9792C55.5322 20.9792 56.1682 20.6859 56.6722 20.0992C57.2002 19.4891 57.4642 18.8085 57.4642 18.0576V16.4384C57.4642 16.3445 57.5122 16.2976 57.6082 16.2976H61.6762C61.7722 16.2976 61.8202 16.3445 61.8202 16.4384V18.0576C61.8202 19.3952 61.4962 20.6037 60.8482 21.6832C60.2242 22.7627 59.3842 23.6309 58.3282 24.288C57.2722 24.9216 56.0842 25.2384 54.7642 25.2384ZM64.5967 24.8864C64.5007 24.8864 64.4527 24.8277 64.4527 24.7104L64.4887 0.528001C64.4887 0.434133 64.5487 0.3872 64.6687 0.3872H68.6647C68.7847 0.3872 68.8447 0.434133 68.8447 0.528001L68.8087 10.1024H74.2087V0.528001C74.2087 0.434133 74.2567 0.3872 74.3527 0.3872H78.3487C78.4687 0.3872 78.5287 0.434133 78.5287 0.528001L78.6007 24.7104C78.6007 24.8277 78.5407 24.8864 78.4207 24.8864H74.3887C74.2687 24.8864 74.2087 24.8277 74.2087 24.7104V14.3616H68.8087V24.7104C68.8087 24.8277 68.7607 24.8864 68.6647 24.8864H64.5967ZM80.3146 24.7104L84.7786 0.528001C84.8026 0.434133 84.8626 0.3872 84.9586 0.3872H90.1786C90.2746 0.3872 90.3346 0.434133 90.3586 0.528001L94.6426 24.7104C94.6666 24.8277 94.6186 24.8864 94.4986 24.8864H90.5026C90.4066 24.8864 90.3466 24.8277 90.3226 24.7104L89.9266 22.1408H85.0306L84.6346 24.7104C84.6106 24.8277 84.5506 24.8864 84.4546 24.8864H80.4586C80.3626 24.8864 80.3146 24.8277 80.3146 24.7104ZM85.7506 18.3744H89.2066L87.7306 8.4832L87.5146 7.1808L87.3706 8.4832L85.7506 18.3744ZM97.2259 24.8864C97.0339 24.8864 96.9379 24.8043 96.9379 24.64L96.9019 0.668801C96.9019 0.481068 96.9979 0.3872 97.1899 0.3872H100.43L106.514 14.256L106.334 0.668801C106.334 0.481068 106.442 0.3872 106.658 0.3872H110.222C110.366 0.3872 110.438 0.481068 110.438 0.668801L110.474 24.6752C110.474 24.816 110.414 24.8864 110.294 24.8864H107.126L100.898 11.9328L101.15 24.6048C101.15 24.7925 101.042 24.8864 100.826 24.8864H97.2259ZM120.189 25.2384C118.893 25.2384 117.717 24.9216 116.661 24.288C115.605 23.6544 114.753 22.8096 114.105 21.7536C113.481 20.6741 113.169 19.4773 113.169 18.1632V7.0048C113.169 5.7376 113.481 4.576 114.105 3.52C114.753 2.44053 115.605 1.584 116.661 0.950401C117.741 0.316801 118.917 0 120.189 0C121.509 0 122.697 0.316801 123.753 0.950401C124.833 1.56053 125.685 2.3936 126.309 3.4496C126.933 4.5056 127.245 5.69067 127.245 7.0048V8.624C127.245 8.71787 127.185 8.7648 127.065 8.7648H123.033C122.937 8.7648 122.889 8.71787 122.889 8.624V7.2864C122.889 6.39467 122.625 5.65547 122.097 5.0688C121.593 4.48213 120.957 4.1888 120.189 4.1888C119.493 4.1888 118.869 4.4704 118.317 5.0336C117.789 5.5968 117.525 6.25387 117.525 7.0048V18.1632C117.525 18.9376 117.789 19.6064 118.317 20.1696C118.845 20.7093 119.469 20.9792 120.189 20.9792C120.957 20.9792 121.593 20.7093 122.097 20.1696C122.625 19.6299 122.889 18.9611 122.889 18.1632V16.4384H120.369C120.249 16.4384 120.189 16.3797 120.189 16.2624V12.32C120.189 12.2027 120.249 12.144 120.369 12.144H127.101C127.197 12.144 127.245 12.2027 127.245 12.32V18.1632C127.245 19.4773 126.921 20.6741 126.273 21.7536C125.649 22.8096 124.809 23.6544 123.753 24.288C122.697 24.9216 121.509 25.2384 120.189 25.2384ZM129.952 24.8864C129.856 24.8864 129.808 24.8277 129.808 24.7104L129.844 0.528001C129.844 0.434133 129.892 0.3872 129.988 0.3872H141.544C141.64 0.3872 141.688 0.445868 141.688 0.563201V4.5056C141.688 4.59947 141.64 4.6464 141.544 4.6464H134.164V10.1376H141.544C141.64 10.1376 141.688 10.1845 141.688 10.2784L141.724 14.256C141.724 14.3499 141.676 14.3968 141.58 14.3968H134.164V20.5568H141.58C141.676 20.5568 141.724 20.6155 141.724 20.7328V24.7456C141.724 24.8395 141.676 24.8864 141.58 24.8864H129.952Z" fill="#334854"/>
</svg>
