<svg width="200" height="37" viewBox="0 0 200 37" fill="none" xmlns="http://www.w3.org/2000/svg">
<path d="M0.202624 35.8139C0.0675414 35.8139 0 35.7295 0 35.5606L0.0506561 0.759913C0.0506561 0.624829 0.118197 0.557287 0.25328 0.557287H16.5139C16.649 0.557287 16.7165 0.641715 16.7165 0.810569V6.48405C16.7165 6.61913 16.649 6.68667 16.5139 6.68667H6.12938V14.589H16.5139C16.649 14.589 16.7165 14.6566 16.7165 14.7916L16.7672 20.5158C16.7672 20.6509 16.6996 20.7184 16.5645 20.7184H6.12938V29.5832H16.5645C16.6996 29.5832 16.7672 29.6676 16.7672 29.8365V35.6113C16.7672 35.7464 16.6996 35.8139 16.5645 35.8139H0.202624ZM21.5249 35.8139C21.356 35.8139 21.2716 35.7295 21.2716 35.5606L21.3729 0.759913C21.3729 0.624829 21.4405 0.557287 21.5755 0.557287L31.0482 0.506631C32.9056 0.47286 34.5942 0.911881 36.1138 1.82369C37.6673 2.7355 38.8999 3.96813 39.8117 5.52158C40.7235 7.04126 41.1794 8.7298 41.1794 10.5872V25.1255C41.1794 27.0842 40.7066 28.874 39.7611 30.495C38.8155 32.0822 37.5491 33.3486 35.9619 34.2942C34.3746 35.2398 32.5848 35.7295 30.5923 35.7633L21.5249 35.8139ZM27.4516 29.5832H30.5923C31.8418 29.5832 32.8887 29.1442 33.733 28.2662C34.611 27.3881 35.0501 26.3412 35.0501 25.1255V10.5365C35.0501 9.45587 34.6448 8.52718 33.8343 7.75045C33.0576 6.93995 32.1289 6.55159 31.0482 6.58536L27.5023 6.63602L27.4516 29.5832ZM54.3373 36.3205C52.5475 36.3205 50.8927 35.8646 49.3731 34.9528C47.8534 34.0072 46.6376 32.7577 45.7258 31.2042C44.8478 29.6508 44.4088 27.9453 44.4088 26.0879L44.5101 0.759913C44.5101 0.624829 44.5776 0.557287 44.7127 0.557287H50.3862C50.5213 0.557287 50.5888 0.624829 50.5888 0.759913V26.0879C50.5888 27.2361 50.9434 28.2155 51.6526 29.026C52.3955 29.8027 53.2905 30.1911 54.3373 30.1911C55.418 30.1911 56.3129 29.8027 57.0221 29.026C57.7651 28.2155 58.1366 27.2361 58.1366 26.0879V0.759913C58.1366 0.624829 58.2041 0.557287 58.3392 0.557287H64.0127C64.1477 0.557287 64.2153 0.624829 64.2153 0.759913L64.3166 26.0879C64.3166 27.9791 63.8607 29.7014 62.9489 31.2549C62.0708 32.8083 60.872 34.0409 59.3523 34.9528C57.8664 35.8646 56.1947 36.3205 54.3373 36.3205Z" fill="#E04462"/>
<path d="M77.6371 36.3204C75.7797 36.3204 74.0912 35.8645 72.5715 34.9527C71.0856 34.0071 69.9036 32.7576 69.0256 31.2041C68.1475 29.6507 67.7085 27.9115 67.7085 25.9866L67.7592 10.1819C67.7592 8.32448 68.1813 6.63595 69.0256 5.11626C69.9036 3.56281 71.0856 2.33018 72.5715 1.41837C74.0912 0.47279 75.7797 0 77.6371 0C79.4945 0 81.1661 0.455906 82.652 1.36772C84.1379 2.27952 85.3199 3.51215 86.198 5.06561C87.076 6.58529 87.515 8.29071 87.515 10.1819V12.512C87.515 12.6471 87.4475 12.7147 87.3124 12.7147H81.6389C81.5038 12.7147 81.4363 12.6471 81.4363 12.512V10.1819C81.4363 9.06744 81.0648 8.10497 80.3219 7.29447C79.6127 6.48398 78.7177 6.07873 77.6371 6.07873C76.4213 6.07873 75.4926 6.50086 74.851 7.34513C74.2094 8.15563 73.8885 9.10121 73.8885 10.1819V25.9866C73.8885 27.2361 74.2431 28.2492 74.9523 29.0259C75.6953 29.8027 76.5902 30.191 77.6371 30.191C78.7177 30.191 79.6127 29.7689 80.3219 28.9246C81.0648 28.0466 81.4363 27.0672 81.4363 25.9866V23.6564C81.4363 23.5213 81.5038 23.4538 81.6389 23.4538H87.363C87.4981 23.4538 87.5657 23.5213 87.5657 23.6564V25.9866C87.5657 27.9115 87.1098 29.6507 86.198 31.2041C85.3199 32.7576 84.1379 34.0071 82.652 34.9527C81.1661 35.8645 79.4945 36.3204 77.6371 36.3204ZM91.4725 35.8138C91.3374 35.8138 91.2699 35.7294 91.2699 35.5606L91.3206 0.759842C91.3206 0.624758 91.405 0.557217 91.5738 0.557217H97.1967C97.3655 0.557217 97.4499 0.624758 97.4499 0.759842L97.3993 14.5383H104.998V0.759842C104.998 0.624758 105.065 0.557217 105.2 0.557217H110.823C110.992 0.557217 111.076 0.624758 111.076 0.759842L111.178 35.5606C111.178 35.7294 111.093 35.8138 110.924 35.8138H105.251C105.082 35.8138 104.998 35.7294 104.998 35.5606V20.6677H97.3993V35.5606C97.3993 35.7294 97.3317 35.8138 97.1967 35.8138H91.4725ZM113.589 35.5606L119.871 0.759842C119.905 0.624758 119.989 0.557217 120.124 0.557217H127.469C127.604 0.557217 127.689 0.624758 127.722 0.759842L133.75 35.5606C133.784 35.7294 133.717 35.8138 133.548 35.8138H127.925C127.79 35.8138 127.706 35.7294 127.672 35.5606L127.115 31.8627H120.225L119.668 35.5606C119.634 35.7294 119.55 35.8138 119.415 35.8138H113.792C113.657 35.8138 113.589 35.7294 113.589 35.5606ZM121.238 26.4425H126.101L124.025 12.2081L123.721 10.3338L123.518 12.2081L121.238 26.4425ZM137.385 35.8138C137.115 35.8138 136.98 35.6956 136.98 35.4592L136.93 0.962467C136.93 0.692301 137.065 0.557217 137.335 0.557217H141.895L150.455 20.5157L150.202 0.962467C150.202 0.692301 150.354 0.557217 150.658 0.557217H155.673C155.876 0.557217 155.977 0.692301 155.977 0.962467L156.028 35.5099C156.028 35.7125 155.943 35.8138 155.774 35.8138H151.317L142.553 17.1724L142.908 35.4086C142.908 35.6788 142.756 35.8138 142.452 35.8138H137.385ZM169.698 36.3204C167.874 36.3204 166.219 35.8645 164.733 34.9527C163.248 34.0409 162.049 32.8251 161.137 31.3054C160.259 29.752 159.82 28.0297 159.82 26.1385V10.0806C159.82 8.25694 160.259 6.58529 161.137 5.06561C162.049 3.51215 163.248 2.27952 164.733 1.36772C166.253 0.455906 167.908 0 169.698 0C171.555 0 173.227 0.455906 174.713 1.36772C176.232 2.24575 177.431 3.44461 178.309 4.9643C179.187 6.48398 179.626 8.1894 179.626 10.0806V12.4107C179.626 12.5458 179.542 12.6134 179.373 12.6134H173.7C173.564 12.6134 173.497 12.5458 173.497 12.4107V10.4858C173.497 9.20252 173.125 8.13874 172.382 7.29447C171.673 6.45021 170.778 6.02807 169.698 6.02807C168.718 6.02807 167.84 6.43332 167.064 7.24382C166.321 8.05432 165.949 8.9999 165.949 10.0806V26.1385C165.949 27.253 166.321 28.2154 167.064 29.0259C167.807 29.8027 168.685 30.191 169.698 30.191C170.778 30.191 171.673 29.8027 172.382 29.0259C173.125 28.2492 173.497 27.2867 173.497 26.1385V23.6564H169.951C169.782 23.6564 169.698 23.572 169.698 23.4031V17.7296C169.698 17.5608 169.782 17.4763 169.951 17.4763H179.424C179.559 17.4763 179.626 17.5608 179.626 17.7296V26.1385C179.626 28.0297 179.17 29.752 178.259 31.3054C177.381 32.8251 176.199 34.0409 174.713 34.9527C173.227 35.8645 171.555 36.3204 169.698 36.3204ZM183.435 35.8138C183.3 35.8138 183.233 35.7294 183.233 35.5606L183.283 0.759842C183.283 0.624758 183.351 0.557217 183.486 0.557217H199.747C199.882 0.557217 199.949 0.641645 199.949 0.810498V6.48398C199.949 6.61906 199.882 6.6866 199.747 6.6866H189.362V14.5889H199.747C199.882 14.5889 199.949 14.6565 199.949 14.7916L200 20.5157C200 20.6508 199.932 20.7183 199.797 20.7183H189.362V29.5831H199.797C199.932 29.5831 200 29.6676 200 29.8364V35.6112C200 35.7463 199.932 35.8138 199.797 35.8138H183.435Z" fill="white"/>
</svg>
